<mxfile host="app.diagrams.net" modified="2024-05-28T08:26:19.691Z" agent="Mozilla/5.0 (Windows NT 10.0; Win64; x64) AppleWebKit/537.36 (KHTML, like Gecko) Chrome/125.0.0.0 Safari/537.36" etag="4zYtV-RYJ3qWc9Xqwb22" version="24.4.9" type="device">
  <diagram name="Page-1" id="qMjP82P0WYZCLhPNuepQ">
    <mxGraphModel dx="954" dy="558" grid="1" gridSize="10" guides="1" tooltips="1" connect="1" arrows="1" fold="1" page="1" pageScale="1" pageWidth="850" pageHeight="1100" math="0" shadow="0">
      <root>
        <mxCell id="0" />
        <mxCell id="1" parent="0" />
        <object label="Orang tua/Wali" id="SPLtv-D785ofsWhWSg8D-1">
          <mxCell style="shape=umlActor;verticalLabelPosition=bottom;verticalAlign=top;html=1;outlineConnect=0;fontFamily=Verdana;" parent="1" vertex="1">
            <mxGeometry x="70" y="270" width="30" height="60" as="geometry" />
          </mxCell>
        </object>
        <mxCell id="TvlWa2O260B9gEWVFZoE-3" value="Registrasi Daycare Bayi" style="ellipse;whiteSpace=wrap;html=1;" vertex="1" parent="1">
          <mxGeometry x="330" y="160" width="120" height="80" as="geometry" />
        </mxCell>
        <mxCell id="TvlWa2O260B9gEWVFZoE-13" value="" style="endArrow=classic;html=1;rounded=0;entryX=-0.029;entryY=0.588;entryDx=0;entryDy=0;entryPerimeter=0;" edge="1" parent="1" source="SPLtv-D785ofsWhWSg8D-1" target="TvlWa2O260B9gEWVFZoE-3">
          <mxGeometry width="50" height="50" relative="1" as="geometry">
            <mxPoint x="110" y="165" as="sourcePoint" />
            <mxPoint x="160" y="115" as="targetPoint" />
          </mxGeometry>
        </mxCell>
        <mxCell id="TvlWa2O260B9gEWVFZoE-14" value="Pembayaran Daycare Bayi" style="ellipse;whiteSpace=wrap;html=1;" vertex="1" parent="1">
          <mxGeometry x="330" y="350" width="120" height="80" as="geometry" />
        </mxCell>
        <mxCell id="TvlWa2O260B9gEWVFZoE-15" value="" style="endArrow=classic;html=1;rounded=0;" edge="1" parent="1" source="SPLtv-D785ofsWhWSg8D-1" target="TvlWa2O260B9gEWVFZoE-14">
          <mxGeometry width="50" height="50" relative="1" as="geometry">
            <mxPoint x="110" y="320" as="sourcePoint" />
            <mxPoint x="160" y="270" as="targetPoint" />
          </mxGeometry>
        </mxCell>
        <mxCell id="TvlWa2O260B9gEWVFZoE-16" value="Mengupdate Informasi Bayi" style="ellipse;whiteSpace=wrap;html=1;" vertex="1" parent="1">
          <mxGeometry x="600" y="160" width="120" height="80" as="geometry" />
        </mxCell>
        <mxCell id="TvlWa2O260B9gEWVFZoE-17" value="Extends" style="endArrow=block;endSize=16;endFill=0;html=1;rounded=0;entryX=1;entryY=0.5;entryDx=0;entryDy=0;" edge="1" parent="1" source="TvlWa2O260B9gEWVFZoE-20" target="TvlWa2O260B9gEWVFZoE-16">
          <mxGeometry width="160" relative="1" as="geometry">
            <mxPoint x="720" y="120" as="sourcePoint" />
            <mxPoint x="870" y="120" as="targetPoint" />
          </mxGeometry>
        </mxCell>
        <mxCell id="TvlWa2O260B9gEWVFZoE-18" value="Melihat Laporan Harian" style="ellipse;whiteSpace=wrap;html=1;" vertex="1" parent="1">
          <mxGeometry x="600" y="350" width="120" height="80" as="geometry" />
        </mxCell>
        <mxCell id="TvlWa2O260B9gEWVFZoE-19" value="Extends" style="endArrow=block;endSize=16;endFill=0;html=1;rounded=0;entryX=1;entryY=0.5;entryDx=0;entryDy=0;" edge="1" parent="1" source="TvlWa2O260B9gEWVFZoE-22" target="TvlWa2O260B9gEWVFZoE-18">
          <mxGeometry width="160" relative="1" as="geometry">
            <mxPoint x="840" y="390" as="sourcePoint" />
            <mxPoint x="860" y="320" as="targetPoint" />
          </mxGeometry>
        </mxCell>
        <mxCell id="TvlWa2O260B9gEWVFZoE-20" value="Staff Admin" style="shape=umlActor;verticalLabelPosition=bottom;verticalAlign=top;html=1;outlineConnect=0;" vertex="1" parent="1">
          <mxGeometry x="850" y="170" width="30" height="60" as="geometry" />
        </mxCell>
        <mxCell id="TvlWa2O260B9gEWVFZoE-22" value="Pengasuh Bayi" style="shape=umlActor;verticalLabelPosition=bottom;verticalAlign=top;html=1;outlineConnect=0;" vertex="1" parent="1">
          <mxGeometry x="850" y="360" width="30" height="60" as="geometry" />
        </mxCell>
        <mxCell id="TvlWa2O260B9gEWVFZoE-23" value="" style="endArrow=block;dashed=1;endFill=0;endSize=12;html=1;rounded=0;" edge="1" parent="1">
          <mxGeometry width="160" relative="1" as="geometry">
            <mxPoint x="450" y="200" as="sourcePoint" />
            <mxPoint x="600" y="200" as="targetPoint" />
          </mxGeometry>
        </mxCell>
        <mxCell id="TvlWa2O260B9gEWVFZoE-24" value="" style="endArrow=block;dashed=1;endFill=0;endSize=12;html=1;rounded=0;entryX=0;entryY=0.5;entryDx=0;entryDy=0;" edge="1" parent="1" target="TvlWa2O260B9gEWVFZoE-18">
          <mxGeometry width="160" relative="1" as="geometry">
            <mxPoint x="450" y="389.5" as="sourcePoint" />
            <mxPoint x="600" y="389.5" as="targetPoint" />
          </mxGeometry>
        </mxCell>
        <mxCell id="TvlWa2O260B9gEWVFZoE-25" value="Mengelola Data Bayi" style="ellipse;whiteSpace=wrap;html=1;" vertex="1" parent="1">
          <mxGeometry x="1010" y="160" width="120" height="80" as="geometry" />
        </mxCell>
        <mxCell id="TvlWa2O260B9gEWVFZoE-26" value="" style="endArrow=classic;html=1;rounded=0;entryX=0;entryY=0.5;entryDx=0;entryDy=0;" edge="1" parent="1" source="TvlWa2O260B9gEWVFZoE-20" target="TvlWa2O260B9gEWVFZoE-25">
          <mxGeometry width="50" height="50" relative="1" as="geometry">
            <mxPoint x="890" y="210" as="sourcePoint" />
            <mxPoint x="940" y="160" as="targetPoint" />
          </mxGeometry>
        </mxCell>
        <mxCell id="TvlWa2O260B9gEWVFZoE-27" value="Mengelola Aktivitas Bayi" style="ellipse;whiteSpace=wrap;html=1;" vertex="1" parent="1">
          <mxGeometry x="1010" y="350" width="120" height="80" as="geometry" />
        </mxCell>
        <mxCell id="TvlWa2O260B9gEWVFZoE-28" value="" style="endArrow=classic;html=1;rounded=0;entryX=0;entryY=0.5;entryDx=0;entryDy=0;" edge="1" parent="1" source="TvlWa2O260B9gEWVFZoE-22" target="TvlWa2O260B9gEWVFZoE-27">
          <mxGeometry width="50" height="50" relative="1" as="geometry">
            <mxPoint x="900" y="390" as="sourcePoint" />
            <mxPoint x="950" y="340" as="targetPoint" />
          </mxGeometry>
        </mxCell>
      </root>
    </mxGraphModel>
  </diagram>
</mxfile>
